<svg xmlns="http://www.w3.org/2000/svg" viewBox="0 0 72 72">
  <defs>
    <linearGradient id="grad" x1="0%" y1="0%" x2="100%" y2="100%">
      <stop offset="0%" style="stop-color: #32988a" />
      <stop offset="25%" style="stop-color: #32a6ff" />
      <stop offset="50%" style="stop-color: #3f6fff" />
      <stop offset="75%" style="stop-color: #8d54ff" />
      <stop offset="100%" style="stop-color: #000e3c" />
    </linearGradient>
    <filter id="shadow" x="0" y="0" width="200%" height="200%">
      <feOffset result="offOut" in="SourceAlpha" dx="1" dy="1" />
      <feGaussianBlur result="blurOut" in="offOut" stdDeviation="0.5" />
      <feColorMatrix result="matrixOut" in="blurOut"
                     values="0 0 0 0 0 0 0 0 0 0 0 0 0 0 0 0 0 0 0.7 0"/>
      <feBlend in="SourceGraphic" in2="matrixOut"/>
    </filter>
  </defs>
  <g fill="url(#grad)" filter="url(#shadow)">
    <path d="M40.9,53a38.6,38.6,0,0,1-7.6,0,17.3,17.3,0,0,1-8.8-3.4l-.3-.2c-3.6-2.9-4.9-7.6-5.1-12.1A32.6,32.6,0,0,1,22,22.2l1.2-2.3,1.1.3c7.7,2.4,15.3,6,23.4,6.7a19.7,19.7,0,0,0,7.1-.7,14.1,14.1,0,0,0,7-4.3A12.1,12.1,0,0,0,64.2,18a14.8,14.8,0,0,0,.8-4.6,12.9,12.9,0,0,0-3.3-8.5C55.7-1.6,45-.5,37.3,1.8A47.1,47.1,0,0,0,17.2,14.1l-3.6-.3a18.2,18.2,0,0,0-3.3,0l-3.4.6L3.6,15.9A14.2,14.2,0,0,0,.7,18.5h0L.4,19a2.9,2.9,0,1,0,5.1,2.9,6.7,6.7,0,0,1,1.2-1.6,7.6,7.6,0,0,1,1.9-1.2,14.6,14.6,0,0,1,4.8-.8h.3A45,45,0,0,0,7.8,28.8,33.9,33.9,0,0,0,5.6,42.7a29.6,29.6,0,0,0,4.7,14.5,30.6,30.6,0,0,0,11.3,9.5c7.2,3.6,15.2,4.2,23,3.4a16,16,0,0,1-4.4-8.2A15.7,15.7,0,0,1,40.9,53ZM49.4,8.4a7.8,7.8,0,0,1,4.5,2.5c2.3,2.6.7,5.6-2.1,7a12.2,12.2,0,0,1-4.2,1.2c-5.3.7-11.3-.5-16.4-1.8L26,16A22.8,22.8,0,0,1,49.4,8.4ZM32.5,63.2h-.1a46.3,46.3,0,0,1-6.3-.7,2,2,0,0,1-1.5-2.4A1.9,1.9,0,0,1,27,58.6a36.9,36.9,0,0,0,5.6.6,2.1,2.1,0,0,1,1.9,2.1A2.1,2.1,0,0,1,32.5,63.2Z"/>
    <path d="M67.5,56.3a12,12,0,0,0-10.3-9.5,19,19,0,0,0-1,9.4,18.5,18.5,0,0,0,.4,2.3,28.1,28.1,0,0,0,.8,3.1A20.5,20.5,0,0,0,60.9,68a5.2,5.2,0,0,0,1,1.1A12.1,12.1,0,0,0,67.5,56.3Z"/>
    <path d="M52.4,59.4a42,42,0,0,1-.6-6.9,22.6,22.6,0,0,1,.9-5.4,11.8,11.8,0,0,0-7.3,5.3A12.1,12.1,0,0,0,57.5,70.6,23.8,23.8,0,0,1,55,66.7,29.9,29.9,0,0,1,52.4,59.4Z"/>
  </g>
</svg>
