<svg xmlns="http://www.w3.org/2000/svg" viewBox="0 0 512 512">
    <path d="M502 225c9-9 12-19 9-28-3-10-12-16-24-18l-127-18c-8-2-19-10-23-17L280 29c-5-11-14-18-24-18s-19 7-24 18l-57 115c-4 7-15 15-23 17L25 179c-12 2-21 8-24 18-3 9 0 19 9 28l92 89c6 6 10 19 9 28L89 468c-2 13 2 20 5 24 5 6 11 9 18 9 6 0 11-2 16-5l114-59c3-2 9-3 14-3s11 1 14 3l114 59c5 3 10 5 16 5 7 0 13-3 18-9 3-4 7-11 5-24l-22-126c-1-9 3-22 9-28zM305 355c0 16-13 29-29 29h-33c-16 0-28-13-28-29v-68l-8 2-8 1c-14 0-24-10-24-25v-33c0-14 10-28 23-32l75-22 7-1c14 0 25 11 25 25v153z"/>
</svg>