<svg xmlns="http://www.w3.org/2000/svg" viewBox="0 0 502 502"><path d="M251 502A249 249 0 010 251 249 249 0 01251 0a249 249 0 01251 251 249 249 0 01-251 251zm0-482a231 231 0 101 463 231 231 0 00-1-463z"/><path d="M194 401a35 35 0 01-34-35V136a35 35 0 0154-29l170 115a35 35 0 010 58L214 395c-6 4-13 6-20 6zm0-280a15 15 0 00-14 15v230a15 15 0 0022 12l171-115a15 15 0 000-24L202 124c-2-2-5-3-8-3zM286 63h-2c-21-4-43-4-64 0a10 10 0 11-4-20c24-4 48-4 72 0a10 10 0 01-2 20zM440 192c-4 0-8-3-10-7-16-44-48-81-91-103a10 10 0 1110-18c46 24 82 65 100 115a10 10 0 01-9 13z"/></svg>