<svg xmlns="http://www.w3.org/2000/svg" viewBox="0 0 512 512"><path d="M410 140c-30-30-66-50-107-59l8-8a43 43 0 000-60 43 43 0 00-60 0l-80 79a43 43 0 000 60l80 80a43 43 0 0060 0c15-15 17-39 4-56a132 132 0 11-191 118 43 43 0 00-86 0 216 216 0 00218 218 216 216 0 00218-218c0-58-23-113-64-154zm-14 294a196 196 0 01-280 0c-37-38-57-87-57-140a23 23 0 0144 0 153 153 0 10178-150 10 10 0 00-9 17l25 25a23 23 0 01-32 31l-79-79a22 22 0 010-32l79-79a23 23 0 0132 32l-22 22a10 10 0 006 17 196 196 0 01115 336z"/><path d="M254 168l-2-2a10 10 0 00-14 15l2 1a10 10 0 0014 0c4-4 4-10 0-14zM230 144l-26-26a10 10 0 00-14 15l26 26a10 10 0 0014 0c4-4 4-11 0-15z"/></svg>