<svg xmlns="http://www.w3.org/2000/svg" viewBox="0 -74 512 512"><path d="M330 343a2191 2191 0 01-249-7c-38-6-53-24-57-68-5-48-5-123 0-172 4-44 19-61 57-67l22-3a10 10 0 10-2-20L78 9c-23 4-40 12-52 25C14 48 7 67 4 94c-5 50-5 127 0 176 3 28 10 47 22 61 12 13 29 21 52 25a1346 1346 0 00253 7 10 10 0 00-1-20zm0 0M508 94c-3-27-10-46-22-60a83 83 0 00-52-25 1347 1347 0 00-253-8 10 10 0 101 20 2191 2191 0 01249 8c38 6 53 23 57 67 5 49 5 124 0 172-4 44-19 62-57 68l-22 3a10 10 0 102 19l23-2c23-4 40-12 52-25 12-14 19-33 22-61 5-49 5-126 0-176zm0 0"/><path d="M338 174L215 97a10 10 0 00-16 9v153a10 10 0 0016 8l123-76a10 10 0 000-17zm-119 67V124l95 58zm0 0M142 23h1a10 10 0 10-2-20 10 10 0 001 20zm0 0M369 342a10 10 0 102 20 10 10 0 10-2-20zm0 0"/></svg>