<svg xmlns="http://www.w3.org/2000/svg" viewBox="0 0 512 512"><path d="M309 159c-4-3-11-2-14 2a10 10 0 1016 12c4-5 3-11-2-14zM286 187c-3-4-9-5-14-1-14 11-29 19-47 24a10 10 0 106 19c20-5 38-15 54-28 4-3 5-10 1-14z"/><path d="M482 226c-17 0-30 14-30 30v5c0 42-31 77-71 84 6-7 9-17 9-27v-7a48 48 0 00-97 0v7c0 10 3 19 8 27-38-9-67-43-67-84v-5a30 30 0 00-60 0v5c0 21 4 40 12 59h-68V219c0-5-3-9-7-10-54-15-91-64-91-120v-5a10 10 0 0120 0v5c0 58 47 105 105 105h48c58 0 105-47 105-105v-5a10 10 0 0120 0v5c0 15-3 30-8 45a10 10 0 1019 7c6-17 9-34 9-52v-5a30 30 0 00-60 0v5c0 42-30 77-70 84 5-8 8-17 8-27v-7a48 48 0 00-97 0v7c0 9 3 19 8 26-38-8-67-42-67-83v-5a30 30 0 00-60 0v5a144 144 0 0098 137v104c0 5 4 10 10 10h2v162a10 10 0 0020 0V340h67l7 10 2 2v150a10 10 0 0020 0V372c13 12 29 21 46 27v103a10 10 0 0020 0V391c0-4-3-8-7-9-54-16-91-65-91-121v-5a10 10 0 0120 0v5c0 58 47 105 105 105h48c58 0 105-47 105-105v-5a10 10 0 0120 0v5c0 57-38 107-93 121-4 1-7 5-7 10v72a10 10 0 0020 0v-65c59-19 100-75 100-138v-5c0-16-13-30-30-30zm-343-87a28 28 0 0157 0v7a28 28 0 01-57 0v-7zm231 179a28 28 0 01-57 0v-7a28 28 0 0157 0v7zM409 495c-2-2-5-3-7-3s-5 1-7 3-3 4-3 7 1 5 3 7 4 3 7 3 5-1 7-3 3-4 3-7-1-5-3-7z"/><path d="M168 374c-6 0-10 4-10 10v118a10 10 0 0020 0V384c0-6-5-10-10-10zM466 82c-6 0-10 4-10 10v12a10 10 0 0020 0V92c0-6-4-10-10-10zM466 142c-6 0-10 4-10 10v12a10 10 0 0020 0v-12c0-6-4-10-10-10zM502 118h-12a10 10 0 000 20h12a10 10 0 000-20zM442 118h-12a10 10 0 000 20h12a10 10 0 000-20zM220 0c-6 0-10 4-10 10v12a10 10 0 0020 0V10c0-6-5-10-10-10zM220 60c-6 0-10 4-10 10v12a10 10 0 0020 0V70c0-6-5-10-10-10zM256 36h-13a10 10 0 000 20h13a10 10 0 000-20zM196 36h-12a10 10 0 000 20h12a10 10 0 000-20z"/></svg>